<svg width="252" height="252" viewBox="0 0 252 252" fill="none" xmlns="http://www.w3.org/2000/svg">
<path d="M126 9.84375C61.8483 9.84375 9.84375 61.8483 9.84375 126C9.84375 190.152 61.8483 242.156 126 242.156C190.152 242.156 242.156 190.152 242.156 126C242.156 61.8483 190.152 9.84375 126 9.84375ZM136.71 199.872C133.613 202.904 129.498 204.42 124.366 204.42C119.234 204.42 115.083 202.904 111.914 199.872C108.819 196.841 107.271 193 107.267 188.35C107.267 183.625 108.851 179.748 112.017 176.72C115.256 173.619 119.372 172.067 124.366 172.064C129.36 172.06 133.44 173.613 136.607 176.72C139.839 179.745 141.456 183.622 141.46 188.35C141.46 193.003 139.876 196.844 136.71 199.872ZM169.529 105.564C166.858 110.85 162.181 116.736 155.497 123.219L146.947 131.36C141.602 136.508 138.542 142.534 137.768 149.438C137.656 151.189 136.882 152.831 135.602 154.03C134.321 155.229 132.632 155.894 130.878 155.891H124.277C116.575 155.891 110.088 149.595 111.323 141.991C111.82 138.677 112.69 135.429 113.917 132.31C116.309 126.463 120.671 120.72 127.004 115.083C133.403 109.374 137.658 104.757 139.771 101.233C141.832 97.8159 142.926 93.9035 142.936 89.9128C142.936 78.0019 137.448 72.0464 126.472 72.0464C121.269 72.0464 117.083 73.6672 113.917 76.9092C108.311 82.653 102.66 90.1245 94.6378 90.1245H94.0324C85.4585 90.1245 78.1397 82.9385 80.8221 74.7928C82.8494 68.5179 86.5143 62.8971 91.4386 58.5112C100.022 50.902 111.7 47.0958 126.472 47.0925C141.392 47.0925 152.965 50.7234 161.191 57.9846C169.427 65.174 173.544 75.3588 173.54 88.5396C173.558 94.4508 172.184 100.283 169.529 105.564Z" fill="#FF9B10"/>
</svg>
